<?xml version="1.0" standalone="no"?>
<!DOCTYPE svg PUBLIC "-//W3C//DTD SVG 20010904//EN"
 "http://www.w3.org/TR/2001/REC-SVG-20010904/DTD/svg10.dtd">
<svg version="1.0" xmlns="http://www.w3.org/2000/svg"
 width="700.000000pt" height="700.000000pt" viewBox="0 0 700.000000 700.000000"
 preserveAspectRatio="xMidYMid meet">

<g transform="translate(0.000000,700.000000) scale(0.100000,-0.100000)"
fill="#000000" stroke="none">
<path d="M3310 4685 c-144 -24 -256 -62 -385 -133 -121 -67 -160 -97 -270
-206 -146 -145 -233 -286 -296 -479 -93 -285 -71 -608 61 -882 142 -297 409
-528 727 -631 119 -38 206 -52 363 -58 63 -3 122 -7 132 -11 30 -12 286 24
371 52 45 15 84 31 87 34 3 4 20 10 37 14 18 3 36 12 40 19 5 6 22 19 40 27
46 21 124 88 230 196 92 94 138 161 182 263 13 30 28 64 33 75 10 23 35 109
50 175 14 61 14 270 -1 410 -35 319 -137 554 -336 768 -174 186 -383 304 -635
358 -104 22 -324 27 -430 9z m-65 -329 c52 -24 132 -101 158 -152 53 -104 63
-239 27 -356 -39 -128 -121 -198 -230 -198 -104 0 -205 86 -250 213 -45 128
-45 349 0 421 19 31 76 77 110 89 41 15 137 6 185 -17z m724 5 c83 -43 138
-146 148 -276 9 -120 -37 -254 -114 -327 -199 -190 -459 -53 -457 242 1 213
142 379 322 380 43 0 75 -6 101 -19z m-1188 -558 c63 -32 120 -107 144 -187
18 -59 20 -174 4 -227 -16 -52 -64 -108 -113 -130 -158 -72 -324 70 -334 284
-6 108 11 161 67 217 74 74 145 87 232 43z m1604 8 c162 -73 183 -351 39 -494
-50 -49 -83 -67 -143 -74 -131 -15 -223 97 -224 272 -1 67 4 90 28 143 34 75
97 136 164 156 62 20 89 19 136 -3z m-708 -206 c76 -23 129 -68 206 -178 39
-56 102 -128 148 -169 86 -78 111 -114 140 -197 34 -98 17 -205 -44 -269 -114
-121 -422 -188 -751 -162 -255 20 -405 68 -492 157 -57 59 -77 114 -72 200 5
100 35 151 146 258 52 50 120 128 152 175 94 138 134 167 270 196 79 16 223
11 297 -11z"/>
</g>
</svg>
