<svg xmlns="http://www.w3.org/2000/svg" viewBox="0 0 480 118" width="480" height="118">
	<style>
		tspan { white-space:pre }
		.shp0 { fill: #ffffff } 
	</style>
	<path id="Layer" fill-rule="evenodd" class="shp0" d="M124.2 59.7C129.4 60.1 132.9 62.1 132.7 67.7C132.7 73.4 127.9 76.7 120.7 76.7C115.7 76.7 111.8 75.5 108.5 72.4L111.4 69.5C113.7 71.9 116.9 72.9 120.6 72.9C125.5 72.9 128.5 71.2 128.5 67.7C128.5 65.1 127 63.7 123.6 63.4L118.7 63C113 62.6 109.9 60 109.9 55.1C109.9 49.6 114.5 46.4 120.8 46.4C125.1 46.4 128.9 47.4 131.5 49.6L128.7 52.4C126.6 50.8 123.9 50.1 120.8 50.1C116.5 50.1 114.2 52 114.2 55C114.2 57.5 115.7 59 119.4 59.3L124.2 59.7ZM173.1 56.2L173.1 76.2L168.8 76.2L168.8 73.4C166.4 75.8 164.3 76.6 160.3 76.6C156.2 76.6 153.8 75.8 151.9 73.9C150.5 72.5 149.7 70.2 149.7 67.9C149.7 62.8 153.3 59.4 159.9 59.4L168.8 59.4L168.8 56.6C168.8 52.3 166.6 50.1 161.2 50.1C157.4 50.1 155.4 51 153.7 53.5L150.9 50.7C153.6 47.3 156.5 46.4 161.3 46.4C169.2 46.4 173.1 49.8 173.1 56.2ZM168.8 62.7L160.5 62.7C156.1 62.7 153.9 64.5 153.9 67.9C153.9 71.4 156 73 160.7 73C163.2 73 165.4 72.8 167.3 71C168.3 70.1 168.8 68.4 168.8 65.9L168.8 62.7ZM190.1 50.2C187.2 50.2 184.8 51.4 183.3 53.8C181.9 55.7 181.4 58 181.4 61.7C181.4 65.4 181.9 67.7 183.3 69.6C184.9 71.9 187.3 73 190.2 73C193 73 194.8 72.1 197 69.6L199.9 72.4C196.8 75.7 194.2 76.8 190.1 76.8C182.7 76.8 177 71.7 177 61.6C177 51.5 182.6 46.4 190.1 46.4C194.2 46.4 196.8 47.4 199.8 50.7L196.9 53.5C194.7 51 192.9 50.2 190.1 50.2ZM216.7 57.3L229 76.4L223.6 76.4L213.7 60.3L208.4 65.6L208.4 76.4L204.1 76.4L204.1 33.5L208.4 33.5L208.4 59.8L221.8 46.7L227.2 46.7L216.7 57.3ZM247.6 45.1C252.1 45.1 255.3 46.9 257.2 48.9C260 51.8 260.7 55.3 260.7 60.9C260.7 66.5 260 70 257.2 72.9C255.3 74.9 252.2 76.7 247.6 76.7C243.1 76.7 240 74.9 238.1 72.9C235.3 70 234.6 66.5 234.6 60.9C234.6 55.3 235.3 51.8 238.1 48.9C240 46.9 243 45.1 247.6 45.1ZM253 60.9C253 57.7 252.8 55 251.2 53.4C250.3 52.5 249.1 52 247.6 52C246 52 244.9 52.5 244 53.4C242.4 55 242.2 57.7 242.2 60.9C242.2 64.1 242.4 66.8 244 68.4C244.9 69.3 246.1 69.8 247.6 69.8C249.1 69.8 250.3 69.3 251.2 68.4C252.8 66.8 253 64.1 253 60.9ZM281.2 45.5L289.3 45.5L278 76.3L272 76.3L260.6 45.5L268.7 45.5L275 64.6L281.2 45.5ZM302.4 45.1C311 45.1 315.8 51.4 315.9 59.7L315.9 63.1L296.6 63.1C296.6 67.1 299 70 303.3 70C306.7 70 308.3 69.1 310.3 67.1L315 71.7C311.9 74.9 308.9 76.6 303.3 76.6C296 76.6 289 73.3 289 60.8C289 50.8 294.4 45.1 302.4 45.1ZM296.5 58L308.3 58C308.3 56.7 308.1 55.8 307.6 54.7C306.7 52.9 305 51.5 302.4 51.5C299.7 51.5 298 52.9 297.2 54.7C296.7 55.8 296.6 56.6 296.5 58ZM335 45.1C338 45.1 340.2 45.9 342.3 48L336.5 53.8C335.3 52.6 334.3 52 332.4 52C330 52 327.4 53.8 327.4 57.7L327.4 76.2L319.7 76.2L319.7 45.4L327.2 45.4L327.2 48.4C328.6 46.7 331.6 45.1 335 45.1ZM344.6 42.3C344.6 37.9 347.3 33.5 353.6 33.4L358 33.4L358 39.9L355 39.9C353.2 39.9 352.3 40.9 352.3 42.7L352.3 46.1L358 46.1L358 52L352.3 52L352.3 76.3L344.6 76.3L344.6 42.3ZM399.3 48.9C402.1 51.8 402.8 55.3 402.8 60.9C402.8 66.5 402.1 70 399.3 72.9C397.4 74.9 394.3 76.7 389.7 76.7C385.2 76.7 382.1 74.9 380.2 72.9C377.4 70 376.7 66.5 376.7 60.9C376.7 55.3 377.4 51.8 380.2 48.9C382.1 46.9 385.1 45.1 389.7 45.1C394.2 45.1 397.4 46.9 399.3 48.9ZM395.1 60.9C395.1 57.7 394.9 55 393.3 53.4C392.4 52.5 391.2 52 389.7 52C388.1 52 387 52.5 386.1 53.4C384.5 55 384.3 57.7 384.3 60.9C384.3 64.1 384.5 66.8 386.1 68.4C387 69.3 388.2 69.8 389.7 69.8C391.2 69.8 392.4 69.3 393.3 68.4C394.9 66.8 395 64.1 395.1 60.9ZM439.1 45.5L439.1 45.6L447.2 45.6L437.8 76.4L431.5 76.4L425 57L418.5 76.3L412.2 76.3L402.7 45.5L410.9 45.5L415.9 64.6L422.2 45.5L427.8 45.5L434.1 64.6L439.1 45.5ZM369.3 67C369.3 68.9 370.1 69.8 372 69.9L375 69.9L375 76.4L370.6 76.4C364.3 76.4 361.6 72 361.6 67.6L361.6 33.5L369.3 33.5L369.3 67ZM145 51.4L140.9 51.4L140.9 68.4C140.9 71.1 142.1 72.7 144.9 72.7L147.2 72.7L147.2 76.4L144.1 76.4C139 76.4 136.5 72.9 136.5 68.5L136.5 37.7L140.8 37.7L140.8 47.4L149 47.4L145 51.4Z" />
	<path id="Layer" class="shp0" d="M88.2 83.6L88.2 61.7L95.5 61.7L95.5 90.9L29.7 90.9L29.7 61.7L37 61.7L37 83.6L88.2 83.6Z" />
	<path id="Layer" class="shp0" d="M45.1 59.7L80.9 67.2L82.4 60L46.6 52.5L45.1 59.7L45.1 59.7ZM49.8 42.5L83 58L86.1 51.4L52.9 35.9L49.8 42.5L49.8 42.5ZM59 26.2L87.1 49.6L91.8 44L63.7 20.6L59 26.2L59 26.2ZM77.1 8.9L71.2 13.3L93 42.7L98.9 38.3L77.1 8.9ZM44.3 76.3L80.9 76.3L80.9 69L44.3 69L44.3 76.3Z" />
	<path id="QUESTION TAGGER " fill="#ffffff" d="M124.15 95.96L124.15 96.63Q124.15 100.06 122.53 102.07L124 103.54Q124.2 103.73 124.13 103.87Q124.07 104 123.8 104L122.28 104Q122.02 104 121.82 103.81L121.25 103.23Q119.69 104.21 117.56 104.21Q114.47 104.21 112.74 102.31Q111.02 100.41 111.02 96.63L111.02 95.96Q111.02 92.16 112.76 90.27Q114.5 88.38 117.58 88.38Q120.62 88.38 122.38 90.38Q124.15 92.38 124.15 95.96ZM119.3 98.81L120.66 100.2Q121.25 98.9 121.25 96.63L121.25 95.96Q121.25 93.13 120.37 91.86Q119.49 90.58 117.58 90.58Q115.69 90.58 114.82 91.9Q113.95 93.21 113.95 95.96L113.95 96.63Q113.95 99.38 114.82 100.69Q115.69 102 117.58 102Q118.75 102 119.53 101.54L117.1 99.11Q116.9 98.92 116.98 98.78Q117.05 98.63 117.31 98.63L118.84 98.63Q119.13 98.64 119.3 98.81ZM133.14 104.21L132.39 104.21Q129.93 104.21 128.41 102.81Q126.89 101.4 126.89 98.94L126.89 88.99Q126.89 88.84 127.01 88.72Q127.14 88.6 127.29 88.6L129.3 88.6Q129.45 88.6 129.57 88.72Q129.7 88.84 129.7 88.99L129.7 98.94Q129.7 100.28 130.42 101.14Q131.15 102 132.39 102L133.17 102Q134.42 102 135.13 101.14Q135.85 100.28 135.85 98.94L135.85 88.99Q135.85 88.82 135.97 88.71Q136.1 88.6 136.25 88.6L138.25 88.6Q138.4 88.6 138.5 88.72Q138.62 88.84 138.62 88.99L138.62 98.94Q138.62 101.38 137.1 102.8Q135.58 104.21 133.14 104.21ZM151.05 88.99L151.05 90.44Q151.05 90.59 150.93 90.72Q150.83 90.84 150.68 90.84L144.61 90.84L144.61 95.2L149.4 95.2Q149.55 95.2 149.67 95.32Q149.79 95.44 149.79 95.6L149.79 96.99Q149.79 97.14 149.67 97.26Q149.55 97.38 149.4 97.38L144.61 97.38L144.61 101.75L150.68 101.75Q150.83 101.75 150.93 101.88Q151.05 102 151.05 102.15L151.05 103.58Q151.05 103.73 150.91 103.87Q150.78 104 150.63 104L142.2 104Q142.05 104 141.92 103.88Q141.8 103.75 141.8 103.6L141.8 88.99Q141.8 88.84 141.92 88.72Q142.05 88.6 142.2 88.6L150.68 88.6Q150.83 88.6 150.93 88.72Q151.05 88.84 151.05 88.99ZM153.51 92.43Q153.51 90.52 154.88 89.46Q156.24 88.38 158.81 88.38Q161.85 88.38 163.65 89.7Q163.96 89.95 163.67 90.25L162.61 91.3Q162.36 91.55 162.04 91.37Q160.68 90.55 158.81 90.56Q156.3 90.56 156.3 92.34Q156.3 93.1 156.82 93.52Q157.34 93.92 159.01 94.43Q162.37 95.44 163.49 96.5Q164.62 97.55 164.62 99.78Q164.62 104.23 158.55 104.21Q155.34 104.21 153.31 102.74Q152.95 102.5 153.26 102.2L154.34 101.1Q154.59 100.85 154.9 101.06Q156.59 102.04 158.55 102.04Q161.87 102.04 161.87 99.82Q161.87 98.77 161.25 98.25Q160.63 97.73 158.66 97.16Q155.53 96.23 154.52 95.27Q153.51 94.3 153.51 92.43ZM166.02 88.6L176.84 88.6Q177.02 88.6 177.14 88.72Q177.28 88.84 177.28 88.99L177.28 90.44Q177.28 90.59 177.14 90.72Q177.02 90.84 176.84 90.84L172.81 90.84L172.81 103.6Q172.81 104 172.42 104L170.44 104Q170.04 104 170.04 103.6L170.04 90.84L166.02 90.84Q165.84 90.84 165.7 90.72Q165.57 90.6 165.57 90.44L165.57 88.99Q165.57 88.84 165.7 88.72Q165.84 88.6 166.02 88.6ZM179.38 103.6L179.38 88.99Q179.38 88.6 179.78 88.6L181.76 88.6Q182.14 88.6 182.13 88.99L182.13 103.6Q182.13 104 181.76 104L179.78 104Q179.38 104 179.38 103.6ZM191.28 104.21Q188.2 104.21 186.47 102.31Q184.74 100.41 184.74 96.63L184.74 95.96Q184.74 92.16 186.48 90.27Q188.22 88.38 191.3 88.38Q194.34 88.38 196.1 90.39Q197.88 92.39 197.88 95.96L197.88 96.63Q197.88 100.28 196.09 102.25Q194.32 104.21 191.28 104.21ZM191.3 90.6Q189.41 90.6 188.54 91.92Q187.67 93.21 187.67 95.96L187.67 96.63Q187.67 99.38 188.54 100.68Q189.41 101.98 191.3 101.98Q193.21 101.98 194.1 100.71Q194.98 99.45 194.98 96.63L194.98 95.96Q194.98 93.13 194.1 91.87Q193.21 90.6 191.3 90.6ZM203.02 104L201.01 104Q200.62 104 200.62 103.6L200.62 88.99Q200.62 88.6 201.01 88.6L203.11 88.6Q203.46 88.6 203.57 88.86L209.57 98.81L209.57 88.99Q209.57 88.6 209.97 88.6L211.97 88.6Q212.35 88.6 212.35 88.99L212.35 103.6Q212.35 104 211.97 104L209.89 104Q209.57 104 209.4 103.73L203.42 93.77L203.42 103.6Q203.42 104 203.02 104ZM219.81 88.6L230.64 88.6Q230.81 88.6 230.94 88.72Q231.08 88.84 231.08 88.99L231.08 90.44Q231.08 90.59 230.94 90.72Q230.81 90.84 230.64 90.84L226.61 90.84L226.61 103.6Q226.61 104 226.21 104L224.24 104Q223.84 104 223.84 103.6L223.84 90.84L219.81 90.84Q219.64 90.84 219.5 90.72Q219.37 90.6 219.37 90.44L219.37 88.99Q219.37 88.84 219.5 88.72Q219.64 88.6 219.81 88.6ZM237.64 88.93L242.2 103.54Q242.33 104 241.9 104L239.8 104Q239.47 104 239.36 103.69L238.35 100.43L233.57 100.43L232.56 103.71Q232.48 104 232.14 104L230.08 104Q229.62 104 229.73 103.56L234.3 88.91Q234.41 88.6 234.74 88.6L237.2 88.6Q237.54 88.6 237.64 88.93ZM235.98 92.75L234.26 98.29L237.69 98.29L235.98 92.75ZM243.47 96.63L243.47 95.94Q243.47 92.16 245.23 90.27Q246.99 88.38 250.09 88.38Q252.99 88.38 254.96 89.81Q255.29 90.08 254.98 90.34L253.9 91.42Q253.65 91.67 253.33 91.49Q251.86 90.58 250.09 90.58Q248.23 90.58 247.31 91.88Q246.4 93.17 246.4 95.94L246.4 96.63Q246.4 101.98 250.09 101.98Q251.88 101.98 252.69 101.1Q253.52 100.22 253.52 98.29L253.52 97.87L250.29 97.87Q250.14 97.87 250.02 97.75Q249.9 97.62 249.9 97.47L249.9 96.08Q249.9 95.93 250.02 95.81Q250.14 95.69 250.29 95.69L256.23 95.69L256.23 98Q256.23 104.23 250.09 104.21Q247.08 104.21 245.27 102.32Q243.47 100.43 243.47 96.63ZM258.51 96.63L258.51 95.94Q258.51 92.16 260.27 90.27Q262.03 88.38 265.13 88.38Q268.03 88.38 270 89.81Q270.33 90.08 270.02 90.34L268.94 91.42Q268.69 91.67 268.37 91.49Q266.9 90.58 265.13 90.58Q263.26 90.58 262.35 91.88Q261.44 93.17 261.44 95.94L261.44 96.63Q261.44 101.98 265.13 101.98Q266.92 101.98 267.73 101.1Q268.56 100.22 268.56 98.29L268.56 97.87L265.33 97.87Q265.18 97.87 265.06 97.75Q264.94 97.62 264.94 97.47L264.94 96.08Q264.94 95.93 265.06 95.81Q265.18 95.69 265.33 95.69L271.27 95.69L271.27 98Q271.27 104.23 265.13 104.21Q262.11 104.21 260.31 102.32Q258.51 100.43 258.51 96.63ZM283.23 88.99L283.23 90.44Q283.23 90.59 283.12 90.72Q283.01 90.84 282.86 90.84L276.79 90.84L276.79 95.2L281.58 95.2Q281.73 95.2 281.85 95.32Q281.98 95.44 281.98 95.6L281.98 96.99Q281.98 97.14 281.85 97.26Q281.73 97.38 281.58 97.38L276.79 97.38L276.79 101.75L282.86 101.75Q283.01 101.75 283.12 101.88Q283.23 102 283.23 102.15L283.23 103.58Q283.23 103.73 283.09 103.87Q282.97 104 282.81 104L274.38 104Q274.23 104 274.1 103.88Q273.98 103.75 273.98 103.6L273.98 88.99Q273.98 88.84 274.1 88.72Q274.23 88.6 274.38 88.6L282.86 88.6Q283.01 88.6 283.12 88.72Q283.23 88.84 283.23 88.99ZM293.11 97.31L296.51 103.54Q296.76 104 296.25 104L294.03 104Q293.68 104 293.55 103.75L290.17 97.66L288.42 97.66L288.42 103.6Q288.42 104 288.02 104L286.02 104Q285.62 104 285.62 103.6L285.62 88.99Q285.62 88.6 286.02 88.6L290.73 88.6Q293.29 88.6 294.77 89.8Q296.25 91 296.25 93.09Q296.25 94.62 295.42 95.73Q294.58 96.82 293.11 97.31ZM290.71 90.84L288.42 90.84L288.42 95.42L290.71 95.42Q292.05 95.42 292.7 94.86Q293.34 94.3 293.34 93.13Q293.34 90.84 290.71 90.84Z" />
</svg>